<svg xmlns="http://www.w3.org/2000/svg"  viewBox="0 0 48 48" width="48px" height="48px"><linearGradient id="nYMvCsU2aI2MBCA4ho~Qna" x1="24" x2="24" y1="333.541" y2="293.009" gradientTransform="matrix(1 0 0 -1 0 340)" gradientUnits="userSpaceOnUse"><stop offset="0" stop-color="#f42ae7"/><stop offset="1" stop-color="#007ad9"/></linearGradient><path fill="url(#nYMvCsU2aI2MBCA4ho~Qna)" d="M 35 42 H 13 c -3.9 0 -7 -3.1 -7 -7 V 13 c 0 -3.9 3.1 -7 7 -7 h 22 c 3.9 0 7 3.1 7 7 v 22 C 42 38.9 38.9 42 35 42 z"/><path fill="#ffffff" d="M 11.9 36.6 c -0.1 0 -0.3 -0.1 -0.4 -0.1 c -0.1 -0.1 -0.2 -0.3 -0.1 -0.4 l 0.3 -2 l 1 0.1 l -0.2 1.3 l 1.3 -0.2 l 0.1 1 l -2 0.3 C 12 36.6 12 36.6 11.9 36.6 z"/><path fill="#ffffff" d="M 24 37 c -0.8 0 -1.6 -0.1 -2.4 -0.2 l 0.2 -1 c 1.2 0.2 2.5 0.3 3.8 0.1 l 0.1 1 C 25.2 37 24.6 37 24 37 z M 27.7 36.5 l -0.3 -1 c 1.2 -0.4 2.4 -0.9 3.4 -1.7 l 0.6 0.8 C 30.3 35.4 29.1 36.1 27.7 36.5 z M 19.6 36.2 c -0.4 -0.1 -0.8 -0.3 -1.2 -0.5 l -2.4 0.3 l -0.1 -1 l 2.6 -0.3 c 0.1 0 0.2 0 0.3 0 c 0.4 0.2 0.8 0.4 1.2 0.5 L 19.6 36.2 z M 33 33.3 l -0.7 -0.7 c 0.9 -0.9 1.7 -1.9 2.3 -3 l 0.9 0.5 C 34.9 31.3 34 32.4 33 33.3 z M 12.9 32.2 l -1 -0.1 l 0.3 -2.5 c -0.2 -0.4 -0.3 -0.8 -0.5 -1.1 l 0.9 -0.3 c 0.1 0.4 0.3 0.8 0.5 1.2 c 0 0.1 0.1 0.2 0 0.3 L 12.9 32.2 z M 36.3 28.2 l -0.9 -0.3 c 0.4 -1.2 0.6 -2.5 0.6 -3.7 l 1 0 C 37 25.5 36.8 26.8 36.3 28.2 z M 11.2 26.4 C 11.1 25.6 11 24.8 11 24 c 0 -0.6 0 -1.1 0.1 -1.7 L 12.1 22.4 C 12 23 12 23.5 12 24 c 0 0.8 0.1 1.5 0.2 2.2 L 11.2 26.4 z M 35.9 22.2 c -0.2 -1.3 -0.6 -2.5 -1.2 -3.6 l 0.9 -0.5 c 0.6 1.2 1.1 2.6 1.3 3.9 L 35.9 22.2 z M 12.5 20.6 l -1 -0.3 c 0.4 -1.3 1 -2.6 1.8 -3.7 l 0.8 0.6 C 13.4 18.2 12.9 19.4 12.5 20.6 z M 33.7 16.9 c -0.8 -1 -1.7 -1.9 -2.7 -2.7 l 0.6 -0.8 c 1.1 0.8 2.1 1.8 2.9 2.9 L 33.7 16.9 z M 15.3 15.7 l -0.7 -0.7 c 1 -1 2.1 -1.8 3.3 -2.5 l 0.5 0.9 C 17.3 14 16.2 14.8 15.3 15.7 z M 29.4 13.3 c -1.1 -0.6 -2.4 -1 -3.6 -1.1 l 0.1 -1 c 1.4 0.2 2.7 0.6 3.9 1.2 L 29.4 13.3 z M 20.1 12.6 L 19.8 11.7 c 1.3 -0.4 2.7 -0.7 4.1 -0.7 l 0 1 C 22.6 12 21.3 12.2 20.1 12.6 z"/><g><path d="M 24 14 c 5.5 0 10 4.5 10 10 s -4.5 10 -10 10 c -1.9 0 -3.7 -0.5 -5.2 -1.5 l -3.9 0.6 l 0.6 -3.9 C 14.5 27.7 14 25.9 14 24 C 14 18.5 18.5 14 24 14 M 24 13 c -6.1 0 -11 4.9 -11 11 c 0 1.9 0.5 3.7 1.4 5.4 l -0.5 3.6 l -0.2 1.3 l 1.3 -0.2 l 3.6 -0.5 C 20.3 34.5 22.1 35 24 35 c 6.1 0 11 -4.9 11 -11 S 30.1 13 24 13 L 24 13 z" opacity=".05"/><path d="M 24 14 c 5.5 0 10 4.5 10 10 s -4.5 10 -10 10 c -1.9 0 -3.7 -0.5 -5.2 -1.5 l -3.9 0.6 l 0.6 -3.9 C 14.5 27.7 14 25.9 14 24 C 14 18.5 18.5 14 24 14 M 24 13.5 c -5.8 0 -10.5 4.7 -10.5 10.5 c 0 1.9 0.5 3.7 1.4 5.3 l -0.5 3.7 l -0.1 0.7 l 0.7 -0.1 l 3.7 -0.5 C 20.3 34 22.1 34.5 24 34.5 c 5.8 0 10.5 -4.7 10.5 -10.5 S 29.8 13.5 24 13.5 L 24 13.5 z" opacity=".07"/><path fill="#ffffff" d="M 24 14 c -5.5 0 -10 4.5 -10 10 c 0 1.9 0.5 3.7 1.5 5.2 l -0.6 3.9 l 3.9 -0.6 C 20.3 33.5 22.1 34 24 34 c 5.5 0 10 -4.5 10 -10 S 29.5 14 24 14 z"/></g></svg>